<svg xmlns="http://www.w3.org/2000/svg" xmlns:xlink="http://www.w3.org/1999/xlink" width="500" zoomAndPan="magnify" viewBox="0 0 375 374.999991" height="500" preserveAspectRatio="xMidYMid meet" version="1.0"><path fill="#5ec9cc" d="M 187.535156 -0.015625 C 84.1875 -0.015625 0.414062 83.269531 0.414062 185.984375 C 0.414062 288.722656 84.1875 371.996094 187.535156 371.996094 C 290.863281 371.996094 374.644531 288.722656 374.644531 185.984375 C 374.644531 83.269531 290.863281 -0.015625 187.535156 -0.015625 Z M 187.535156 342.488281 C 100.578125 342.488281 30.09375 272.433594 30.09375 185.984375 C 30.09375 99.558594 100.578125 29.492188 187.535156 29.492188 C 274.484375 29.492188 344.964844 99.558594 344.964844 185.984375 C 344.964844 272.433594 274.480469 342.488281 187.535156 342.488281 Z M 187.535156 342.488281 " fill-opacity="1" fill-rule="nonzero"/><path fill="#5ec9cc" d="M 304.78125 190.554688 L 304.863281 190.472656 L 304.863281 190.460938 C 307.3125 187.929688 307.328125 183.953125 304.851562 181.515625 L 213 90.210938 C 211.769531 88.980469 210.140625 88.34375 208.511719 88.34375 C 206.867188 88.34375 205.238281 88.980469 204 90.210938 L 203.894531 90.332031 C 202.691406 91.523438 202.023438 93.117188 202.023438 94.808594 L 202.023438 120.070312 C 202.023438 121.746094 202.691406 123.355469 203.894531 124.53125 L 265.683594 185.984375 L 203.894531 247.433594 C 202.691406 248.625 202.023438 250.234375 202.023438 251.910156 L 202.023438 277.183594 C 202.023438 278.832031 202.691406 280.472656 203.894531 281.648438 L 204 281.769531 C 205.191406 282.945312 206.8125 283.621094 208.511719 283.621094 C 210.199219 283.621094 211.808594 282.945312 213 281.769531 Z M 304.78125 190.554688 " fill-opacity="1" fill-rule="nonzero"/><path fill="#5ec9cc" d="M 72.496094 190.554688 L 72.421875 190.472656 L 72.421875 190.460938 C 69.972656 187.929688 69.972656 183.953125 72.421875 181.515625 L 164.273438 90.210938 C 165.527344 88.980469 167.15625 88.34375 168.777344 88.34375 C 170.417969 88.34375 172.035156 88.980469 173.277344 90.210938 L 173.402344 90.332031 C 174.597656 91.523438 175.277344 93.117188 175.277344 94.808594 L 175.277344 120.070312 C 175.277344 121.746094 174.597656 123.355469 173.402344 124.53125 L 111.589844 185.984375 L 173.402344 247.433594 C 174.597656 248.625 175.277344 250.234375 175.277344 251.910156 L 175.277344 277.183594 C 175.277344 278.832031 174.597656 280.472656 173.402344 281.648438 L 173.277344 281.769531 C 172.097656 282.945312 170.480469 283.621094 168.777344 283.621094 C 167.09375 283.621094 165.476562 282.945312 164.273438 281.769531 Z M 72.496094 190.554688 " fill-opacity="1" fill-rule="nonzero"/></svg>